<svg width="39" height="35" viewBox="0 0 39 35" fill="none" xmlns="http://www.w3.org/2000/svg">
<g filter="url(#filter0_d_32_207)">
<path d="M19.5 3.5L19.5 4.5L19.5 3.5ZM8.20787 13.5L9.18785 13.6991L9.18785 13.6991L8.20787 13.5ZM7.14251 16.0145C7.42665 16.4881 8.04091 16.6416 8.51449 16.3575L16.2319 11.727C16.7055 11.4429 16.8591 10.8286 16.5749 10.355C16.2908 9.88146 15.6765 9.7279 15.2029 10.012L8.343 14.128L4.22703 7.26807C3.94288 6.79449 3.32862 6.64092 2.85504 6.92507C2.38146 7.20922 2.2279 7.82348 2.51205 8.29706L7.14251 16.0145ZM33 15.5C33 7.34321 26.4416 2.5 19.5 2.5L19.5 4.5C25.5584 4.5 31 8.65679 31 15.5L33 15.5ZM12.8116 26.2253C13.3631 26.7488 15.6891 28.5 19.5 28.5L19.5 26.5C16.3109 26.5 14.4561 25.0288 14.1884 24.7747L12.8116 26.2253ZM19.5 28.5C23.2118 28.5 26.5898 27.3055 29.0507 25.0497C31.5222 22.7842 33 19.5096 33 15.5L31 15.5C31 18.9904 29.7278 21.7158 27.6993 23.5753C25.6602 25.4445 22.7882 26.5 19.5 26.5L19.5 28.5ZM19.5 2.5C13.1791 2.5 8.30354 8.0057 7.22788 13.3009L9.18785 13.6991C10.1271 9.07537 14.373 4.5 19.5 4.5L19.5 2.5ZM7.22788 13.3009C7.22524 13.3139 7.20765 13.3957 7.20254 13.4854C7.20118 13.5093 7.19769 13.5777 7.20786 13.6638C7.21284 13.7059 7.22517 13.79 7.26165 13.8901C7.29277 13.9755 7.38195 14.1871 7.60972 14.3544C7.89093 14.5609 8.22083 14.5845 8.4813 14.5088C8.69181 14.4476 8.82553 14.3337 8.87678 14.287C8.98481 14.1885 9.04486 14.0887 9.05692 14.0691C9.09624 14.0051 9.1207 13.9487 9.12656 13.9354C9.13698 13.9116 9.14553 13.8901 9.15149 13.8747C9.16359 13.8435 9.17548 13.8102 9.18591 13.7804C9.22673 13.6634 9.28739 13.4754 9.35113 13.2769C9.48583 12.8574 9.64291 12.3643 9.74109 12.0978C9.76633 12.0292 9.77788 12.0028 9.77769 12.0032C9.77672 12.0053 9.77219 12.015 9.76435 12.0296C9.75804 12.0413 9.74024 12.0738 9.71143 12.1147C9.69787 12.1339 9.61421 12.2565 9.45776 12.3609C9.37346 12.4172 9.20141 12.5133 8.9602 12.5264C8.6833 12.5414 8.42985 12.4408 8.24532 12.2772C8.08638 12.1363 8.01316 11.9811 7.98167 11.902C7.94733 11.8157 7.93265 11.743 7.92588 11.7024C7.91251 11.6222 7.91311 11.561 7.91337 11.5428C7.91398 11.4999 7.91798 11.4773 7.9156 11.4952C7.91196 11.5227 7.90113 11.5882 7.87665 11.7099C7.77944 12.1932 7.53081 13.2537 7.02986 15.2575L8.97014 15.7425C9.46919 13.7463 9.72947 12.6408 9.83739 12.1042C9.8642 11.9709 9.88566 11.8531 9.89825 11.7581C9.90399 11.7148 9.91211 11.6461 9.91317 11.5711C9.91365 11.5368 9.91357 11.463 9.89865 11.3735C9.8911 11.3282 9.87543 11.2517 9.83989 11.1624C9.8072 11.0803 9.73256 10.9229 9.572 10.7805C9.38585 10.6155 9.13057 10.5142 8.85165 10.5293C8.60842 10.5426 8.43415 10.6395 8.34743 10.6974C8.18614 10.8051 8.09687 10.9338 8.07698 10.9621C8.01629 11.0481 7.97769 11.1309 7.9643 11.1597C7.92782 11.2381 7.89286 11.3291 7.86433 11.4065C7.7474 11.724 7.57291 12.273 7.44689 12.6654C7.38027 12.8729 7.32828 13.0334 7.29759 13.1214C7.29414 13.1313 7.2914 13.139 7.28932 13.1447C7.28716 13.1506 7.28626 13.153 7.28645 13.1525C7.28658 13.1521 7.28729 13.1503 7.28851 13.1473C7.28968 13.1444 7.2919 13.1391 7.29506 13.1319C7.29625 13.1291 7.31681 13.0807 7.35307 13.0217C7.36359 13.0046 7.42232 12.9066 7.52923 12.8091C7.57992 12.7629 7.71314 12.6493 7.9232 12.5882C8.18321 12.5127 8.51272 12.5361 8.79359 12.7424C9.02102 12.9095 9.1099 13.1206 9.1408 13.2054C9.17704 13.3049 9.18919 13.3881 9.19405 13.4292C9.20397 13.5132 9.20046 13.5788 9.19931 13.599C9.19504 13.6741 9.18196 13.7281 9.18785 13.6991L7.22788 13.3009Z" fill="white"/>
<path fill-rule="evenodd" clip-rule="evenodd" d="M21 8.5C21 7.94772 20.5523 7.5 20 7.5C19.4477 7.5 19 7.94772 19 8.5V14.5V15.5C19 15.5 19 15.5 19 15.5L21.5153 20.4704C21.7786 20.9906 22.4247 21.183 22.9296 20.8915C23.3842 20.629 23.5639 20.0634 23.3442 19.5866L21.2754 15.0976C21.094 14.7039 21 14.2755 21 13.842V8.5Z" fill="white"/>
</g>
<defs>
<filter id="filter0_d_32_207" x="0.369385" y="0.5" width="38.6306" height="34" filterUnits="userSpaceOnUse" color-interpolation-filters="sRGB">
<feFlood flood-opacity="0" result="BackgroundImageFix"/>
<feColorMatrix in="SourceAlpha" type="matrix" values="0 0 0 0 0 0 0 0 0 0 0 0 0 0 0 0 0 0 127 0" result="hardAlpha"/>
<feOffset dx="2" dy="2"/>
<feGaussianBlur stdDeviation="2"/>
<feComposite in2="hardAlpha" operator="out"/>
<feColorMatrix type="matrix" values="0 0 0 0 0 0 0 0 0 0 0 0 0 0 0 0 0 0 1 0"/>
<feBlend mode="normal" in2="BackgroundImageFix" result="effect1_dropShadow_32_207"/>
<feBlend mode="normal" in="SourceGraphic" in2="effect1_dropShadow_32_207" result="shape"/>
</filter>
</defs>
</svg>
